<svg xmlns="http://www.w3.org/2000/svg" viewBox="0 0 64 64" fill="none">
  <rect width="64" height="64" rx="14" fill="#0a0e1a"/>
  <rect x="1" y="1" width="62" height="62" rx="13" stroke="#22d3ee" stroke-width="1.5" stroke-opacity="0.3"/>
  <!-- S shape from two arcs - prediction market vibe -->
  <path d="M20 22C20 18 24 14 32 14C40 14 44 18 44 22C44 28 36 28 32 30C28 32 20 32 20 38C20 44 24 50 32 50C40 50 44 46 44 42" stroke="#22d3ee" stroke-width="4.5" stroke-linecap="round" fill="none"/>
  <!-- Up arrow (bet A) -->
  <circle cx="18" cy="16" r="5" fill="#22d3ee" fill-opacity="0.15"/>
  <path d="M18 19V13M15 15.5L18 13L21 15.5" stroke="#22d3ee" stroke-width="1.5" stroke-linecap="round" stroke-linejoin="round"/>
  <!-- Down arrow (bet B) -->
  <circle cx="46" cy="48" r="5" fill="#e63973" fill-opacity="0.15"/>
  <path d="M46 45V51M43 48.5L46 51L49 48.5" stroke="#e63973" stroke-width="1.5" stroke-linecap="round" stroke-linejoin="round"/>
  <!-- Dot accents -->
  <circle cx="8" cy="8" r="1.5" fill="#22d3ee" fill-opacity="0.4"/>
  <circle cx="56" cy="8" r="1.5" fill="#a78bfa" fill-opacity="0.4"/>
  <circle cx="8" cy="56" r="1.5" fill="#a78bfa" fill-opacity="0.4"/>
  <circle cx="56" cy="56" r="1.5" fill="#22d3ee" fill-opacity="0.4"/>
</svg>
